<svg xmlns="http://www.w3.org/2000/svg" viewBox="0 0 20 30" width="20" height="30" fill="none" style="image-rendering: pixelated;">
  <rect x="0" y="24" width="20" height="6" fill="#66004c" />
  <rect x="0" y="24" width="20" height="1" fill="#8a3f73" />
  <rect x="0" y="28" width="20" height="2" fill="#3f002f" />
  <rect x="0" y="12" width="20" height="12" fill="#e2cfe2" />
  <rect x="0" y="23" width="20" height="1" fill="#f0e2f0" />
  <rect x="4" y="19" width="12" height="2" fill="#5a003f" />
  <rect x="6" y="17" width="8" height="2" fill="#5a003f" />
  <rect x="8" y="16" width="4" height="1" fill="#5a003f" />
  <g class="joystick-handle">
    <rect x="9" y="9" width="2" height="7" fill="#7f2b68" />
    <rect x="9" y="10" width="1" height="6" fill="#bf97bf" />
    <rect x="7" y="6" width="6" height="3" fill="#5a003f" />
    <rect x="8" y="9" width="4" height="1" fill="#5a003f" />
    <rect x="7" y="3" width="6" height="3" fill="#7a2f63" />
    <rect x="8" y="2" width="4" height="1" fill="#7a2f63" />
    <rect x="10" y="3" width="2" height="2" fill="#d8bfd8" />
  </g>
</svg>
